<?xml version="1.0" standalone="no"?>
<!DOCTYPE svg PUBLIC "-//W3C//DTD SVG 20010904//EN"
 "http://www.w3.org/TR/2001/REC-SVG-20010904/DTD/svg10.dtd">
<svg version="1.0"
    xmlns="http://www.w3.org/2000/svg" width="318.000000pt" height="332.000000pt" viewBox="0 0 318.000000 332.000000" preserveAspectRatio="xMidYMid meet">

    <g transform="translate(0.000000,332.000000) scale(0.100000,-0.100000)" fill="#000000" stroke="none">
        <path d="M353 3072 c-100 -35 -171 -115 -193 -216 -8 -36 -10 -408 -8 -1266
l3 -1215 28 -57 c32 -64 80 -111 146 -142 46 -21 46 -21 1291 -21 1245 0 1245
0 1291 21 66 31 114 78 146 142 l28 57 0 1245 c0 1245 0 1245 -21 1291 -31 66
-78 114 -142 146 l-57 28 -1230 2 c-1160 2 -1233 1 -1282 -15z m1781 -1238
c192 -334 349 -612 349 -618 0 -6 -35 -66 -78 -134 l-78 -122 -706 2 -706 3
-72 120 c-40 66 -72 125 -73 130 0 6 64 121 142 255 78 135 236 408 351 608
l209 362 156 0 157 0 349 -606z"/>
        <path d="M1493 2388 c-6 -7 -102 -173 -213 -368 -112 -195 -257 -449 -323
-563 -65 -115 -117 -210 -115 -213 3 -2 235 -3 516 -2 l511 3 -56 98 -57 97
-277 0 c-168 0 -280 4 -284 10 -4 7 373 676 532 943 8 13 -224 8 -234 -5z"/>
        <path d="M1757 2349 c-24 -38 -497 -861 -497 -865 0 -2 49 -4 108 -4 l108 0
139 240 c86 150 143 240 151 238 13 -3 158 -248 436 -736 60 -106 113 -190
118 -187 5 3 34 45 64 94 l56 89 -316 548 c-174 302 -324 562 -334 578 l-18
29 -15 -24z"/>
        <path d="M1710 1799 c-43 -76 -50 -96 -42 -114 6 -12 67 -120 136 -240 70
-120 125 -225 124 -234 -3 -14 -60 -16 -546 -19 -298 -1 -542 -5 -542 -7 0 -3
24 -46 52 -95 l53 -90 668 0 669 0 -20 33 c-63 105 -203 346 -292 502 -103
181 -200 348 -205 353 -1 1 -26 -39 -55 -89z"/>
        <path d="M1577 1568 l-46 -83 49 -3 c28 -2 72 -2 100 0 l49 3 -46 83 c-26 45
-50 82 -53 82 -3 0 -27 -37 -53 -82z"/>
    </g>
</svg>
