<?xml version="1.0" encoding="UTF-8"?>
<svg width="120" height="40" viewBox="0 0 120 40" fill="none"
    xmlns="http://www.w3.org/2000/svg">
    <path d="M24.6504 30H21.9121L15.4863 19.3125H15.4512V30H12.7129V11.8125H15.4512V22.3594H15.4863L21.8418 11.8125H24.5098L18.1191 22.2891L24.6504 30ZM35.4492 27.4219C35.4492 26.7344 35.1777 26.1953 34.6348 25.8047C34.0918 25.4141 33.1895 25.0742 31.9277 24.7852C30.666 24.4961 29.6465 24.1777 28.8691 23.8301C26.9551 22.9902 26.998 21.4453 26.998 21.1953C26.998 20.1172 27.4238 19.2266 28.2754 18.5234C29.127 17.8203 30.2637 17.4688 31.6855 17.4688C33.1895 17.4688 34.3848 17.8438 35.2715 18.5938C36.1582 19.3438 36.6016 20.3164 36.6016 21.5117H33.9688C33.9688 20.9844 33.7676 20.5352 33.3652 20.1641C32.9629 19.793 32.3965 19.6074 31.666 19.6074C30.9941 19.6074 30.4688 19.7578 30.0898 20.0586C29.7109 20.3594 29.5215 20.7422 29.5215 21.207C29.5215 21.6367 29.7344 21.9844 30.1602 22.25C30.5859 22.5156 31.4492 22.8047 32.75 23.1172C34.0508 23.4297 35.0586 23.7891 35.7734 24.1953C36.4883 24.6016 36.9961 25.0781 37.2969 25.625C37.5977 26.1719 37.748 26.8164 37.748 27.5586C37.748 28.7148 37.2988 29.6484 36.4004 30.3594C35.502 31.0703 34.3066 31.4258 32.8145 31.4258C31.8301 31.4258 30.9551 31.2617 30.1895 30.9336C29.4238 30.6055 28.8164 30.1367 28.3672 29.5273C27.918 28.918 27.6934 28.2461 27.6934 27.5117H30.2559C30.2969 28.1445 30.5586 28.6406 31.041 29C31.5234 29.3594 32.1484 29.5391 32.916 29.5391C33.6816 29.5391 34.2773 29.3867 34.7031 29.082C35.1289 28.7773 35.4492 28.1562 35.4492 27.4219ZM48.3809 31.4258C46.7793 31.4258 45.4766 30.8945 44.4727 29.832C43.4688 28.7695 42.9668 27.3477 42.9668 25.5664V25.2188C42.9668 24.0391 43.1953 22.9961 43.6523 22.0898C44.1094 21.1836 44.7539 20.4766 45.5859 19.9688C46.418 19.4609 47.3477 19.207 48.375 19.207C49.8867 19.207 51.0859 19.7188 51.9727 20.7422C52.8594 21.7656 53.3027 23.2148 53.3027 25.0898V26.0859H45.6699C45.7461 27.0781 46.0742 27.8711 46.6543 28.4648C47.2344 29.0586 47.9648 29.3555 48.8457 29.3555C50.0801 29.3555 51.0742 28.8281 51.8281 27.7734L53.1094 29.0898C52.6406 29.8555 52.0137 30.4492 51.2285 30.8711C50.4434 31.2422 49.4746 31.4258 48.3809 31.4258ZM48.375 21.2891C47.6562 21.2891 47.0664 21.5547 46.6055 22.0859C46.1445 22.6172 45.8574 23.3633 45.7441 24.3242H50.8223V24.1484C50.7695 23.2266 50.5215 22.5156 50.0781 22.0156C49.6348 21.5312 49.0703 21.2891 48.375 21.2891ZM63.3223 21.7891C62.9668 21.7305 62.5879 21.7012 62.1855 21.7012C60.8965 21.7012 60.0273 22.2207 59.5781 23.2598V31H56.875V19.6328H59.4492L59.5195 21.0898C60.1836 19.8281 61.1328 19.1973 62.3672 19.1973C62.8047 19.1973 63.1309 19.2539 63.3457 19.3672L63.3223 21.7891ZM73.0801 31H70.377V25.0078H65.6426V31H62.9395V11.8125H65.6426V22.7188H70.377V11.8125H73.0801V31ZM83.3965 31C83.2676 30.7461 83.168 30.3555 83.0977 29.8281C82.2461 30.8932 81.1445 31.4258 79.793 31.4258C78.5352 31.4258 77.4922 31.0391 76.6641 30.2656C75.8359 29.4922 75.4219 28.5273 75.4219 27.3711C75.4219 25.9492 75.9297 24.8477 76.9453 24.0664C77.9609 23.2852 79.4141 22.8906 81.3047 22.8828H82.9766V22.0898C82.9766 21.4648 82.8008 20.9648 82.4492 20.5898C82.0977 20.2148 81.5684 20.0273 80.8613 20.0273C80.2324 20.0273 79.7227 20.1797 79.332 20.4844C78.9414 20.7891 78.7461 21.1797 78.7461 21.6562H76.043C76.043 20.9492 76.2734 20.2891 76.7344 19.6758C77.1953 19.0625 77.8262 18.582 78.627 18.2344C79.4277 17.8867 80.3145 17.7129 81.2871 17.7129C82.8066 17.7129 84.0137 18.1094 84.9082 18.9023C85.8027 19.6953 86.2578 20.8125 86.2734 22.2539V27.9688C86.2734 29.1875 86.4141 30.1523 86.6953 30.8633V31H83.3965ZM80.3203 28.8164C80.873 28.8164 81.3867 28.6836 81.8613 28.418C82.3359 28.1523 82.6875 27.8008 82.916 27.3633V24.7266H81.5352C80.4648 24.7266 79.6504 24.9219 79.0918 25.3125C78.5332 25.7031 78.2539 26.2539 78.2539 26.9648C78.2539 27.5469 78.4219 28.0117 78.7578 28.3594C79.0938 28.6641 79.6133 28.8164 80.3203 28.8164ZM96.3574 21.7891C96.002 21.7305 95.623 21.7012 95.2207 21.7012C93.9316 21.7012 93.0625 22.2207 92.6133 23.2598V31H89.9102V19.6328H92.4844L92.5547 21.0898C93.2188 19.8281 94.168 19.1973 95.4023 19.1973C95.8398 19.1973 96.166 19.2539 96.3809 19.3672L96.3574 21.7891ZM106.115 31C105.986 30.7461 105.887 30.3555 105.816 29.8281C104.965 30.8932 103.863 31.4258 102.512 31.4258C101.254 31.4258 100.211 31.0391 99.3828 30.2656C98.5547 29.4922 98.1406 28.5273 98.1406 27.3711C98.1406 25.9492 98.6484 24.8477 99.6641 24.0664C100.68 23.2852 102.133 22.8906 104.023 22.8828H105.695V22.0898C105.695 21.4648 105.52 20.9648 105.168 20.5898C104.816 20.2148 104.287 20.0273 103.58 20.0273C102.951 20.0273 102.441 20.1797 102.051 20.4844C101.66 20.7891 101.465 21.1797 101.465 21.6562H98.7617C98.7617 20.9492 98.9922 20.2891 99.4531 19.6758C99.9141 19.0625 100.545 18.582 101.346 18.2344C102.146 17.8867 103.033 17.7129 104.006 17.7129C105.525 17.7129 106.732 18.1094 107.627 18.9023C108.521 19.6953 108.977 20.8125 108.992 22.2539V27.9688C108.992 29.1875 109.133 30.1523 109.414 30.8633V31H106.115ZM103.039 28.8164C103.592 28.8164 104.105 28.6836 104.58 28.418C105.055 28.1523 105.406 27.8008 105.635 27.3633V24.7266H104.254C103.184 24.7266 102.369 24.9219 101.811 25.3125C101.252 25.7031 100.973 26.2539 100.973 26.9648C100.973 27.5469 101.141 28.0117 101.477 28.3594C101.812 28.6641 102.332 28.8164 103.039 28.8164Z" fill="#0EA5E9"/>
</svg>
